<?xml version="1.0" standalone="no"?>
<!DOCTYPE svg PUBLIC "-//W3C//DTD SVG 20010904//EN"
 "http://www.w3.org/TR/2001/REC-SVG-20010904/DTD/svg10.dtd">
<svg version="1.0" xmlns="http://www.w3.org/2000/svg"
 width="700.000000pt" height="700.000000pt" viewBox="0 0 700.000000 700.000000"
 preserveAspectRatio="xMidYMid meet">
<metadata>
Created by potrace 1.14, written by Peter Selinger 2001-2017
</metadata>
<g transform="translate(0.000000,700.000000) scale(0.100000,-0.100000)"
fill="#000000" stroke="none">
<path d="M5548 5365 c-2 -2 -22 -5 -46 -9 -208 -28 -416 -170 -550 -375 -67
-102 -115 -218 -152 -365 -127 -504 -146 -543 -384 -781 -160 -159 -170 -168
-292 -260 -49 -37 -96 -72 -105 -79 -80 -64 -384 -224 -589 -311 -291 -122
-834 -283 -1250 -369 -107 -22 -582 -116 -610 -121 -19 -3 -48 -8 -65 -12 -16
-3 -39 -7 -50 -9 -50 -7 -325 -55 -370 -65 -170 -36 -319 -110 -436 -214 -73
-65 -80 -62 138 -64 205 -2 227 -3 353 -16 156 -15 282 -63 312 -119 6 -11 11
-36 11 -57 0 -74 -44 -131 -322 -411 -260 -263 -264 -268 -230 -269 19 0 215
-1 437 -1 l403 0 291 291 c160 161 296 290 302 287 6 -3 61 -27 121 -54 293
-132 535 -178 797 -149 137 15 400 97 539 168 91 46 84 50 119 -59 17 -53 35
-106 40 -117 5 -11 34 -98 65 -192 l57 -173 37 -1 c43 -1 774 -1 813 0 l26 1
-144 433 c-118 351 -144 439 -138 467 5 32 59 223 117 420 14 47 49 150 77
230 28 80 52 150 54 155 4 12 8 24 63 159 125 311 251 493 394 571 68 37 122
31 210 -23 99 -60 165 -80 256 -77 224 7 427 176 520 433 60 164 65 408 11
557 -88 248 -366 499 -627 565 -40 11 -195 22 -203 15z"/>
<path d="M2458 5245 c-2 -2 -26 -6 -53 -10 -384 -44 -782 -246 -1043 -526 -95
-102 -113 -124 -180 -224 -94 -140 -104 -159 -167 -300 -108 -244 -158 -559
-131 -824 4 -40 18 -128 31 -195 14 -66 25 -124 25 -128 0 -4 6 -5 12 -3 7 2
31 7 53 10 40 5 191 31 231 39 12 2 37 7 55 10 60 10 90 16 329 62 286 56 227
43 470 98 113 25 282 67 375 91 94 25 179 48 189 50 20 5 29 8 226 70 326 103
594 220 814 354 153 92 260 176 403 316 l115 111 -25 45 c-13 24 -33 60 -43
79 -62 115 -178 265 -294 379 -247 245 -596 423 -935 477 -22 3 -51 8 -65 11
-30 5 -387 13 -392 8z"/>
</g>
</svg>
